<mxfile host="app.diagrams.net" agent="Mozilla/5.0 (Windows NT 10.0; Win64; x64) AppleWebKit/537.36 (KHTML, like Gecko) Chrome/130.0.0.0 Safari/537.36" version="24.8.4" pages="2">
  <diagram name="Reservas de Hotel" id="tOLR-bDX3ip8aA7YL2Mg">
    <mxGraphModel dx="1434" dy="772" grid="1" gridSize="10" guides="1" tooltips="1" connect="1" arrows="1" fold="1" page="1" pageScale="1" pageWidth="827" pageHeight="1169" math="0" shadow="0">
      <root>
        <mxCell id="0" />
        <mxCell id="1" parent="0" />
        <mxCell id="y8uqyYwWgfK6_-NwnYeD-1" value="Hospede" style="swimlane;fontStyle=1;align=center;verticalAlign=top;childLayout=stackLayout;horizontal=1;startSize=26;horizontalStack=0;resizeParent=1;resizeParentMax=0;resizeLast=0;collapsible=1;marginBottom=0;whiteSpace=wrap;html=1;" vertex="1" parent="1">
          <mxGeometry x="60" y="277" width="160" height="150" as="geometry" />
        </mxCell>
        <mxCell id="y8uqyYwWgfK6_-NwnYeD-2" value="+ nome: String&lt;div&gt;+ CPF: String&lt;/div&gt;&lt;div&gt;+ endereço: String&lt;/div&gt;&lt;div&gt;+ telefone: String&lt;/div&gt;" style="text;strokeColor=none;fillColor=none;align=left;verticalAlign=top;spacingLeft=4;spacingRight=4;overflow=hidden;rotatable=0;points=[[0,0.5],[1,0.5]];portConstraint=eastwest;whiteSpace=wrap;html=1;" vertex="1" parent="y8uqyYwWgfK6_-NwnYeD-1">
          <mxGeometry y="26" width="160" height="74" as="geometry" />
        </mxCell>
        <mxCell id="y8uqyYwWgfK6_-NwnYeD-3" value="" style="line;strokeWidth=1;fillColor=none;align=left;verticalAlign=middle;spacingTop=-1;spacingLeft=3;spacingRight=3;rotatable=0;labelPosition=right;points=[];portConstraint=eastwest;strokeColor=inherit;" vertex="1" parent="y8uqyYwWgfK6_-NwnYeD-1">
          <mxGeometry y="100" width="160" height="8" as="geometry" />
        </mxCell>
        <mxCell id="y8uqyYwWgfK6_-NwnYeD-4" value="+ fazerReserva(quarto: Quarto): Reserva" style="text;strokeColor=none;fillColor=none;align=left;verticalAlign=top;spacingLeft=4;spacingRight=4;overflow=hidden;rotatable=0;points=[[0,0.5],[1,0.5]];portConstraint=eastwest;whiteSpace=wrap;html=1;" vertex="1" parent="y8uqyYwWgfK6_-NwnYeD-1">
          <mxGeometry y="108" width="160" height="42" as="geometry" />
        </mxCell>
        <mxCell id="y8uqyYwWgfK6_-NwnYeD-5" value="Quarto" style="swimlane;fontStyle=1;align=center;verticalAlign=top;childLayout=stackLayout;horizontal=1;startSize=26;horizontalStack=0;resizeParent=1;resizeParentMax=0;resizeLast=0;collapsible=1;marginBottom=0;whiteSpace=wrap;html=1;" vertex="1" parent="1">
          <mxGeometry x="620" y="295" width="160" height="114" as="geometry" />
        </mxCell>
        <mxCell id="y8uqyYwWgfK6_-NwnYeD-6" value="+ numero: Int&lt;div&gt;+ tipo: String&lt;/div&gt;&lt;div&gt;+ status: Boolean&lt;/div&gt;" style="text;strokeColor=none;fillColor=none;align=left;verticalAlign=top;spacingLeft=4;spacingRight=4;overflow=hidden;rotatable=0;points=[[0,0.5],[1,0.5]];portConstraint=eastwest;whiteSpace=wrap;html=1;" vertex="1" parent="y8uqyYwWgfK6_-NwnYeD-5">
          <mxGeometry y="26" width="160" height="54" as="geometry" />
        </mxCell>
        <mxCell id="y8uqyYwWgfK6_-NwnYeD-7" value="" style="line;strokeWidth=1;fillColor=none;align=left;verticalAlign=middle;spacingTop=-1;spacingLeft=3;spacingRight=3;rotatable=0;labelPosition=right;points=[];portConstraint=eastwest;strokeColor=inherit;" vertex="1" parent="y8uqyYwWgfK6_-NwnYeD-5">
          <mxGeometry y="80" width="160" height="8" as="geometry" />
        </mxCell>
        <mxCell id="y8uqyYwWgfK6_-NwnYeD-8" value="?" style="text;strokeColor=none;fillColor=none;align=left;verticalAlign=top;spacingLeft=4;spacingRight=4;overflow=hidden;rotatable=0;points=[[0,0.5],[1,0.5]];portConstraint=eastwest;whiteSpace=wrap;html=1;" vertex="1" parent="y8uqyYwWgfK6_-NwnYeD-5">
          <mxGeometry y="88" width="160" height="26" as="geometry" />
        </mxCell>
        <mxCell id="y8uqyYwWgfK6_-NwnYeD-9" value="Reserva" style="swimlane;fontStyle=1;align=center;verticalAlign=top;childLayout=stackLayout;horizontal=1;startSize=26;horizontalStack=0;resizeParent=1;resizeParentMax=0;resizeLast=0;collapsible=1;marginBottom=0;whiteSpace=wrap;html=1;" vertex="1" parent="1">
          <mxGeometry x="340" y="280" width="160" height="144" as="geometry" />
        </mxCell>
        <mxCell id="y8uqyYwWgfK6_-NwnYeD-10" value="&lt;div&gt;+ ID: String&lt;/div&gt;+ quarto: Quarto&lt;div&gt;+ dataEntrada: Date&lt;/div&gt;&lt;div&gt;+ dataSaída: Date&lt;/div&gt;&lt;div&gt;+ valor: Float&lt;/div&gt;" style="text;strokeColor=none;fillColor=none;align=left;verticalAlign=top;spacingLeft=4;spacingRight=4;overflow=hidden;rotatable=0;points=[[0,0.5],[1,0.5]];portConstraint=eastwest;whiteSpace=wrap;html=1;" vertex="1" parent="y8uqyYwWgfK6_-NwnYeD-9">
          <mxGeometry y="26" width="160" height="84" as="geometry" />
        </mxCell>
        <mxCell id="y8uqyYwWgfK6_-NwnYeD-11" value="" style="line;strokeWidth=1;fillColor=none;align=left;verticalAlign=middle;spacingTop=-1;spacingLeft=3;spacingRight=3;rotatable=0;labelPosition=right;points=[];portConstraint=eastwest;strokeColor=inherit;" vertex="1" parent="y8uqyYwWgfK6_-NwnYeD-9">
          <mxGeometry y="110" width="160" height="8" as="geometry" />
        </mxCell>
        <mxCell id="y8uqyYwWgfK6_-NwnYeD-12" value="?" style="text;strokeColor=none;fillColor=none;align=left;verticalAlign=top;spacingLeft=4;spacingRight=4;overflow=hidden;rotatable=0;points=[[0,0.5],[1,0.5]];portConstraint=eastwest;whiteSpace=wrap;html=1;" vertex="1" parent="y8uqyYwWgfK6_-NwnYeD-9">
          <mxGeometry y="118" width="160" height="26" as="geometry" />
        </mxCell>
        <mxCell id="y8uqyYwWgfK6_-NwnYeD-13" value="" style="endArrow=open;endFill=1;endSize=12;html=1;rounded=0;" edge="1" parent="1" source="y8uqyYwWgfK6_-NwnYeD-1" target="y8uqyYwWgfK6_-NwnYeD-9">
          <mxGeometry width="160" relative="1" as="geometry">
            <mxPoint x="330" y="500" as="sourcePoint" />
            <mxPoint x="490" y="500" as="targetPoint" />
          </mxGeometry>
        </mxCell>
        <mxCell id="y8uqyYwWgfK6_-NwnYeD-14" value="" style="endArrow=open;endFill=1;endSize=12;html=1;rounded=0;" edge="1" parent="1" source="y8uqyYwWgfK6_-NwnYeD-9" target="y8uqyYwWgfK6_-NwnYeD-5">
          <mxGeometry width="160" relative="1" as="geometry">
            <mxPoint x="330" y="500" as="sourcePoint" />
            <mxPoint x="490" y="500" as="targetPoint" />
          </mxGeometry>
        </mxCell>
        <mxCell id="y8uqyYwWgfK6_-NwnYeD-15" value="1" style="text;align=center;fontStyle=1;verticalAlign=middle;spacingLeft=3;spacingRight=3;strokeColor=none;rotatable=0;points=[[0,0.5],[1,0.5]];portConstraint=eastwest;html=1;" vertex="1" parent="1">
          <mxGeometry x="550" y="330" width="80" height="26" as="geometry" />
        </mxCell>
        <mxCell id="y8uqyYwWgfK6_-NwnYeD-16" value="n" style="text;align=center;fontStyle=1;verticalAlign=middle;spacingLeft=3;spacingRight=3;strokeColor=none;rotatable=0;points=[[0,0.5],[1,0.5]];portConstraint=eastwest;html=1;" vertex="1" parent="1">
          <mxGeometry x="270" y="330" width="80" height="26" as="geometry" />
        </mxCell>
        <mxCell id="y8uqyYwWgfK6_-NwnYeD-17" value="1" style="text;align=center;fontStyle=1;verticalAlign=middle;spacingLeft=3;spacingRight=3;strokeColor=none;rotatable=0;points=[[0,0.5],[1,0.5]];portConstraint=eastwest;html=1;" vertex="1" parent="1">
          <mxGeometry x="200" y="330" width="80" height="26" as="geometry" />
        </mxCell>
        <mxCell id="y8uqyYwWgfK6_-NwnYeD-18" value="n" style="text;align=center;fontStyle=1;verticalAlign=middle;spacingLeft=3;spacingRight=3;strokeColor=none;rotatable=0;points=[[0,0.5],[1,0.5]];portConstraint=eastwest;html=1;" vertex="1" parent="1">
          <mxGeometry x="470" y="330" width="80" height="26" as="geometry" />
        </mxCell>
        <mxCell id="y8uqyYwWgfK6_-NwnYeD-19" value="" style="endArrow=open;endFill=1;endSize=12;html=1;rounded=0;" edge="1" parent="1" source="y8uqyYwWgfK6_-NwnYeD-1" target="y8uqyYwWgfK6_-NwnYeD-5">
          <mxGeometry width="160" relative="1" as="geometry">
            <mxPoint x="330" y="400" as="sourcePoint" />
            <mxPoint x="410" y="180" as="targetPoint" />
            <Array as="points">
              <mxPoint x="280" y="170" />
              <mxPoint x="410" y="170" />
              <mxPoint x="560" y="170" />
            </Array>
          </mxGeometry>
        </mxCell>
      </root>
    </mxGraphModel>
  </diagram>
  <diagram id="xhvTf9aFk-q1b6pCRcse" name="Biblioteca">
    <mxGraphModel dx="1434" dy="772" grid="1" gridSize="10" guides="1" tooltips="1" connect="1" arrows="1" fold="1" page="1" pageScale="1" pageWidth="827" pageHeight="1169" math="0" shadow="0">
      <root>
        <mxCell id="0" />
        <mxCell id="1" parent="0" />
      </root>
    </mxGraphModel>
  </diagram>
</mxfile>
